<svg width="711" height="449" viewBox="0 0 711 449" fill="none" xmlns="http://www.w3.org/2000/svg">
<g clip-path="url(#clip0_20_1091)">
<path d="M626.086 410.626L626.778 395.068C633.997 391.212 642.048 389.175 650.233 389.135C638.968 398.338 640.376 416.079 632.739 428.455C627.854 436.238 619.692 441.377 610.558 442.423L601.131 448.191C598.513 433.607 602.417 418.609 611.814 407.149C614.451 403.997 617.474 401.191 620.812 398.794C623.07 404.743 626.086 410.626 626.086 410.626Z" fill="#F2F2F2"/>
<path d="M149.538 393.577L126.788 386.694C123.805 374.582 123.825 361.924 126.848 349.821C136.216 369.924 162.984 374.527 178.411 390.467C188.08 400.613 192.607 414.602 190.714 428.484L195.693 444.578C173.139 442.951 152.429 431.537 139.019 413.343C135.352 408.263 132.339 402.741 130.052 396.909C139.701 395.815 149.538 393.577 149.538 393.577H149.538Z" fill="#F2F2F2"/>
<path d="M547.259 445.646C547.256 446.118 547.068 446.569 546.737 446.903C546.405 447.234 545.956 447.418 545.488 447.417H538.365C537.39 447.42 536.597 446.633 536.594 445.659V230.414C536.594 225.669 534.999 221.819 533.041 221.81H89.6779C87.7113 221.818 86.1256 225.669 86.1168 230.414V444.327C86.1138 445.239 85.421 446 84.5134 446.089C83.0783 446.231 81.6432 446.354 80.217 446.47C80.1815 446.47 80.1461 446.478 80.1107 446.478C79.3311 446.549 78.5515 446.602 77.772 446.664H77.7631C77.3556 445.93 76.9659 445.177 76.5672 444.425C76.4394 444.169 76.3727 443.887 76.3723 443.601V219.251C76.3723 217.941 76.4255 216.622 76.5141 215.321C76.6404 213.534 76.8622 211.755 77.1784 209.992C78.6755 201.768 82.0595 196.2 85.9042 196.183H536.806C537.367 196.186 537.922 196.304 538.436 196.528C539.192 196.862 539.875 197.34 540.447 197.935C541.224 198.742 541.888 199.651 542.422 200.635C544.318 203.972 545.674 208.947 546.152 214.737C546.152 214.79 546.161 214.843 546.161 214.896C546.285 216.33 546.347 217.791 546.338 219.251L546.462 238.222L546.542 249.535L546.781 285.032L546.87 297.638L547.259 445.646Z" fill="#E6E6E6"/>
<path d="M382.712 130.558H337.528C336.197 130.56 335.119 131.64 335.121 132.97V204.295H385.125V132.97C385.126 131.638 384.046 130.559 382.714 130.558H382.712ZM360.272 171.084C357.331 171.071 354.95 168.692 354.936 165.753V157.526C354.936 154.581 357.325 152.194 360.272 152.194C363.219 152.194 365.607 154.581 365.607 157.526V165.753C365.594 168.692 363.213 171.071 360.272 171.084Z" fill="#CCCCCC"/>
<path d="M334.966 202.014V208.895C334.967 209.638 335.569 210.239 336.312 210.24H383.934C384.676 210.237 385.277 209.637 385.28 208.895V202.014H334.966Z" fill="#3F3D56"/>
<path d="M457.532 19.2464H264.389C260.934 19.2519 258.135 22.0492 258.129 25.5017V155.741C258.133 159.195 260.933 161.993 264.389 161.997H457.532C460.988 161.993 463.788 159.195 463.792 155.741V25.5017C463.786 22.0492 460.987 19.2519 457.532 19.2464Z" fill="#E6E6E6"/>
<path d="M455.92 23.7645H266.003C264.153 23.7685 262.655 25.2682 262.655 27.1168V154.128C262.658 155.975 264.155 157.471 266.003 157.474H455.92C457.767 157.471 459.264 155.975 459.268 154.128V27.1168C459.267 25.2682 457.77 23.7685 455.92 23.7645Z" fill="#6B757B"/>
<path d="M418.927 212.635H305.937C304.789 212.635 303.858 211.705 303.858 210.558C303.858 210.414 303.873 210.271 303.903 210.13L305.656 201.809C305.862 200.85 306.708 200.164 307.69 200.16H417.174C418.156 200.164 419.002 200.85 419.208 201.809L420.961 210.13C421.198 211.253 420.479 212.354 419.355 212.59C419.215 212.62 419.071 212.635 418.927 212.635Z" fill="#CCCCCC"/>
<path d="M311.54 201.659H308.925C308.686 201.659 308.492 201.852 308.492 202.091V203.313C308.492 203.552 308.686 203.745 308.925 203.745H311.54C311.779 203.745 311.972 203.552 311.972 203.313V202.091C311.972 201.852 311.779 201.659 311.54 201.659Z" fill="#E6E6E6"/>
<path d="M318.5 201.659H315.885C315.646 201.659 315.452 201.852 315.452 202.091V203.313C315.452 203.552 315.646 203.745 315.885 203.745H318.5C318.739 203.745 318.932 203.552 318.932 203.313V202.091C318.932 201.852 318.739 201.659 318.5 201.659Z" fill="#E6E6E6"/>
<path d="M325.46 201.659H322.845C322.606 201.659 322.412 201.852 322.412 202.091V203.313C322.412 203.552 322.606 203.745 322.845 203.745H325.46C325.698 203.745 325.892 203.552 325.892 203.313V202.091C325.892 201.852 325.698 201.659 325.46 201.659Z" fill="#E6E6E6"/>
<path d="M332.42 201.659H329.805C329.566 201.659 329.372 201.852 329.372 202.091V203.313C329.372 203.552 329.566 203.745 329.805 203.745H332.42C332.658 203.745 332.852 203.552 332.852 203.313V202.091C332.852 201.852 332.658 201.659 332.42 201.659Z" fill="#E6E6E6"/>
<path d="M339.38 201.659H336.765C336.526 201.659 336.332 201.852 336.332 202.091V203.313C336.332 203.552 336.526 203.745 336.765 203.745H339.38C339.619 203.745 339.812 203.552 339.812 203.313V202.091C339.812 201.852 339.619 201.659 339.38 201.659Z" fill="#E6E6E6"/>
<path d="M346.34 201.659H343.725C343.486 201.659 343.292 201.852 343.292 202.091V203.313C343.292 203.552 343.486 203.745 343.725 203.745H346.34C346.578 203.745 346.772 203.552 346.772 203.313V202.091C346.772 201.852 346.578 201.659 346.34 201.659Z" fill="#E6E6E6"/>
<path d="M353.3 201.659H350.685C350.446 201.659 350.252 201.852 350.252 202.091V203.313C350.252 203.552 350.446 203.745 350.685 203.745H353.3C353.538 203.745 353.732 203.552 353.732 203.313V202.091C353.732 201.852 353.538 201.659 353.3 201.659Z" fill="#E6E6E6"/>
<path d="M360.26 201.659H357.645C357.406 201.659 357.212 201.852 357.212 202.091V203.313C357.212 203.552 357.406 203.745 357.645 203.745H360.26C360.498 203.745 360.692 203.552 360.692 203.313V202.091C360.692 201.852 360.498 201.659 360.26 201.659Z" fill="#E6E6E6"/>
<path d="M367.22 201.659H364.605C364.366 201.659 364.172 201.852 364.172 202.091V203.313C364.172 203.552 364.366 203.745 364.605 203.745H367.22C367.458 203.745 367.652 203.552 367.652 203.313V202.091C367.652 201.852 367.458 201.659 367.22 201.659Z" fill="#E6E6E6"/>
<path d="M374.18 201.659H371.565C371.326 201.659 371.132 201.852 371.132 202.091V203.313C371.132 203.552 371.326 203.745 371.565 203.745H374.18C374.418 203.745 374.612 203.552 374.612 203.313V202.091C374.612 201.852 374.418 201.659 374.18 201.659Z" fill="#E6E6E6"/>
<path d="M381.14 201.659H378.525C378.286 201.659 378.092 201.852 378.092 202.091V203.313C378.092 203.552 378.286 203.745 378.525 203.745H381.14C381.378 203.745 381.572 203.552 381.572 203.313V202.091C381.572 201.852 381.378 201.659 381.14 201.659Z" fill="#E6E6E6"/>
<path d="M388.1 201.659H385.484C385.246 201.659 385.052 201.852 385.052 202.091V203.313C385.052 203.552 385.246 203.745 385.484 203.745H388.1C388.338 203.745 388.532 203.552 388.532 203.313V202.091C388.532 201.852 388.338 201.659 388.1 201.659Z" fill="#E6E6E6"/>
<path d="M395.059 201.659H392.444C392.206 201.659 392.012 201.852 392.012 202.091V203.313C392.012 203.552 392.206 203.745 392.444 203.745H395.059C395.298 203.745 395.492 203.552 395.492 203.313V202.091C395.492 201.852 395.298 201.659 395.059 201.659Z" fill="#E6E6E6"/>
<path d="M402.019 201.659H399.404C399.166 201.659 398.972 201.852 398.972 202.091V203.313C398.972 203.552 399.166 203.745 399.404 203.745H402.019C402.258 203.745 402.452 203.552 402.452 203.313V202.091C402.452 201.852 402.258 201.659 402.019 201.659Z" fill="#E6E6E6"/>
<path d="M408.979 201.659H406.364C406.126 201.659 405.932 201.852 405.932 202.091V203.313C405.932 203.552 406.126 203.745 406.364 203.745H408.979C409.218 203.745 409.412 203.552 409.412 203.313V202.091C409.412 201.852 409.218 201.659 408.979 201.659Z" fill="#E6E6E6"/>
<path d="M415.939 201.659H413.324C413.085 201.659 412.892 201.852 412.892 202.091V203.313C412.892 203.552 413.085 203.745 413.324 203.745H415.939C416.178 203.745 416.372 203.552 416.372 203.313V202.091C416.372 201.852 416.178 201.659 415.939 201.659Z" fill="#E6E6E6"/>
<path d="M311.457 205.136H308.842C308.604 205.136 308.41 205.329 308.41 205.568V206.79C308.41 207.029 308.604 207.223 308.842 207.223H311.457C311.696 207.223 311.89 207.029 311.89 206.79V205.568C311.89 205.329 311.696 205.136 311.457 205.136Z" fill="#E6E6E6"/>
<path d="M318.417 205.136H315.802C315.563 205.136 315.37 205.329 315.37 205.568V206.79C315.37 207.029 315.563 207.223 315.802 207.223H318.417C318.656 207.223 318.85 207.029 318.85 206.79V205.568C318.85 205.329 318.656 205.136 318.417 205.136Z" fill="#E6E6E6"/>
<path d="M325.377 205.136H322.762C322.524 205.136 322.33 205.329 322.33 205.568V206.79C322.33 207.029 322.524 207.223 322.762 207.223H325.377C325.616 207.223 325.81 207.029 325.81 206.79V205.568C325.81 205.329 325.616 205.136 325.377 205.136Z" fill="#E6E6E6"/>
<path d="M332.337 205.136H329.722C329.484 205.136 329.29 205.329 329.29 205.568V206.79C329.29 207.029 329.484 207.223 329.722 207.223H332.337C332.576 207.223 332.77 207.029 332.77 206.79V205.568C332.77 205.329 332.576 205.136 332.337 205.136Z" fill="#E6E6E6"/>
<path d="M339.297 205.136H336.682C336.443 205.136 336.25 205.329 336.25 205.568V206.79C336.25 207.029 336.443 207.223 336.682 207.223H339.297C339.536 207.223 339.73 207.029 339.73 206.79V205.568C339.73 205.329 339.536 205.136 339.297 205.136Z" fill="#E6E6E6"/>
<path d="M346.257 205.136H343.642C343.403 205.136 343.21 205.329 343.21 205.568V206.79C343.21 207.029 343.403 207.223 343.642 207.223H346.257C346.496 207.223 346.69 207.029 346.69 206.79V205.568C346.69 205.329 346.496 205.136 346.257 205.136Z" fill="#E6E6E6"/>
<path d="M353.217 205.136H350.602C350.363 205.136 350.17 205.329 350.17 205.568V206.79C350.17 207.029 350.363 207.223 350.602 207.223H353.217C353.456 207.223 353.65 207.029 353.65 206.79V205.568C353.65 205.329 353.456 205.136 353.217 205.136Z" fill="#E6E6E6"/>
<path d="M360.177 205.136H357.562C357.323 205.136 357.13 205.329 357.13 205.568V206.79C357.13 207.029 357.323 207.223 357.562 207.223H360.177C360.416 207.223 360.61 207.029 360.61 206.79V205.568C360.61 205.329 360.416 205.136 360.177 205.136Z" fill="#E6E6E6"/>
<path d="M367.137 205.136H364.522C364.283 205.136 364.09 205.329 364.09 205.568V206.79C364.09 207.029 364.283 207.223 364.522 207.223H367.137C367.376 207.223 367.57 207.029 367.57 206.79V205.568C367.57 205.329 367.376 205.136 367.137 205.136Z" fill="#E6E6E6"/>
<path d="M374.097 205.136H371.482C371.243 205.136 371.05 205.329 371.05 205.568V206.79C371.05 207.029 371.243 207.223 371.482 207.223H374.097C374.336 207.223 374.53 207.029 374.53 206.79V205.568C374.53 205.329 374.336 205.136 374.097 205.136Z" fill="#E6E6E6"/>
<path d="M381.057 205.136H378.442C378.203 205.136 378.01 205.329 378.01 205.568V206.79C378.01 207.029 378.203 207.223 378.442 207.223H381.057C381.296 207.223 381.49 207.029 381.49 206.79V205.568C381.49 205.329 381.296 205.136 381.057 205.136Z" fill="#E6E6E6"/>
<path d="M388.017 205.136H385.402C385.163 205.136 384.97 205.329 384.97 205.568V206.79C384.97 207.029 385.163 207.223 385.402 207.223H388.017C388.256 207.223 388.45 207.029 388.45 206.79V205.568C388.45 205.329 388.256 205.136 388.017 205.136Z" fill="#E6E6E6"/>
<path d="M394.977 205.136H392.362C392.123 205.136 391.93 205.329 391.93 205.568V206.79C391.93 207.029 392.123 207.223 392.362 207.223H394.977C395.216 207.223 395.41 207.029 395.41 206.79V205.568C395.41 205.329 395.216 205.136 394.977 205.136Z" fill="#E6E6E6"/>
<path d="M401.937 205.136H399.322C399.083 205.136 398.89 205.329 398.89 205.568V206.79C398.89 207.029 399.083 207.223 399.322 207.223H401.937C402.176 207.223 402.37 207.029 402.37 206.79V205.568C402.37 205.329 402.176 205.136 401.937 205.136Z" fill="#E6E6E6"/>
<path d="M408.897 205.136H406.282C406.043 205.136 405.85 205.329 405.85 205.568V206.79C405.85 207.029 406.043 207.223 406.282 207.223H408.897C409.136 207.223 409.33 207.029 409.33 206.79V205.568C409.33 205.329 409.136 205.136 408.897 205.136Z" fill="#E6E6E6"/>
<path d="M415.857 205.136H413.242C413.003 205.136 412.81 205.329 412.81 205.568V206.79C412.81 207.029 413.003 207.223 413.242 207.223H415.857C416.096 207.223 416.29 207.029 416.29 206.79V205.568C416.29 205.329 416.096 205.136 415.857 205.136Z" fill="#E6E6E6"/>
<path d="M369.225 209.309H342.25C342.011 209.309 341.818 209.502 341.818 209.741V210.963C341.818 211.202 342.011 211.395 342.25 211.395H369.225C369.464 211.395 369.658 211.202 369.658 210.963V209.741C369.658 209.502 369.464 209.309 369.225 209.309Z" fill="#E6E6E6"/>
<path d="M446.373 41.2638H268.668C268.278 41.2553 267.969 40.9321 267.977 40.5421C267.986 40.1642 268.29 39.8598 268.668 39.8515H446.373C446.763 39.8601 447.073 40.1832 447.064 40.5732C447.056 40.9511 446.751 41.2555 446.373 41.2638Z" fill="#CACACA"/>
<path d="M280.765 36.2459C283.052 36.2459 284.907 34.3518 284.907 32.0152C284.907 29.6786 283.052 27.7845 280.765 27.7845C278.478 27.7845 276.624 29.6786 276.624 32.0152C276.624 34.3518 278.478 36.2459 280.765 36.2459Z" fill="#CCCCCC"/>
<path d="M295.072 36.2459C297.359 36.2459 299.213 34.3518 299.213 32.0152C299.213 29.6786 297.359 27.7845 295.072 27.7845C292.785 27.7845 290.93 29.6786 290.93 32.0152C290.93 34.3518 292.785 36.2459 295.072 36.2459Z" fill="#CCCCCC"/>
<path d="M309.379 36.2459C311.666 36.2459 313.52 34.3518 313.52 32.0152C313.52 29.6786 311.666 27.7845 309.379 27.7845C307.092 27.7845 305.237 29.6786 305.237 32.0152C305.237 34.3518 307.092 36.2459 309.379 36.2459Z" fill="#CCCCCC"/>
<path d="M357.339 51.9713L356.765 50.2955L430.165 12.1851L430.738 13.8608L357.339 51.9713Z" fill="#3F3D56"/>
<path d="M578.803 122.56L578.229 120.885L622.396 82.9672L622.97 84.6421L578.803 122.56Z" fill="#3F3D56"/>
<path d="M493.947 131.387L420.546 93.2765L421.12 91.6008L494.52 129.711L493.947 131.387Z" fill="#3F3D56"/>
<path d="M531.521 104.868L488.49 34.2748L489.85 33.1391L532.879 103.732L531.521 104.868Z" fill="#3F3D56"/>
<path d="M565.102 12.8835L523.194 12.6905V10.9201L565.102 11.1131V12.8835Z" fill="#3F3D56"/>
<path d="M641.017 23.8651H594.067C587.707 23.8651 582.551 18.7128 582.551 12.3572C582.551 6.00159 587.707 0.849342 594.067 0.849342H641.017C647.377 0.849342 652.533 6.00159 652.533 12.3572C652.533 18.7128 647.377 23.8651 641.017 23.8651Z" fill="#6B757B"/>
<path d="M699.484 91.1418H652.533C646.173 91.1418 641.017 85.9895 641.017 79.6339C641.017 73.2783 646.173 68.1261 652.533 68.1261H699.484C705.844 68.1261 711 73.2783 711 79.6339C711 85.9895 705.844 91.1418 699.484 91.1418Z" fill="#6B757B"/>
<path d="M623.568 138.584L581.661 138.392V136.621L623.568 136.813V138.584Z" fill="#3F3D56"/>
<path d="M699.484 149.566H652.533C646.173 149.566 641.017 144.414 641.017 138.058C641.017 131.703 646.173 126.551 652.533 126.551H699.484C705.844 126.551 711 131.703 711 138.058C711 144.414 705.844 149.566 699.484 149.566Z" fill="#6B757B"/>
<path d="M562.176 141.635H515.225C508.865 141.635 503.709 136.483 503.709 130.127C503.709 123.772 508.865 118.619 515.225 118.619H562.176C568.536 118.619 573.692 123.772 573.692 130.127C573.692 136.483 568.536 141.635 562.176 141.635Z" fill="#6B757B"/>
<path d="M498.394 23.0157H451.443C445.083 23.0157 439.927 17.8635 439.927 11.5079C439.927 5.15224 445.083 0 451.443 0H498.394C504.754 0 509.91 5.15224 509.91 11.5079C509.91 17.8635 504.754 23.0157 498.394 23.0157Z" fill="#6B757B"/>
<path d="M273.981 220.579H220.829C216.915 220.579 213.742 223.75 213.742 227.661C213.742 231.572 216.915 234.743 220.829 234.743H240.318V289.626H254.492V234.743H273.981C277.895 234.743 281.068 231.572 281.068 227.661C281.068 223.75 277.895 220.579 273.981 220.579Z" fill="#3F3D56"/>
<path d="M309.062 320.022H166.897C138.409 319.918 114.306 298.953 110.276 270.772L105.243 252.275C94.8275 213.945 78.9621 177.306 58.1322 143.479C48.6116 128.028 43.7113 113.072 54.8414 98.6731C54.9361 98.5505 55.0293 98.4296 55.1209 98.3104C64.0479 86.6997 108.48 84.1862 122.965 83.6974C123.537 83.6779 124.111 83.6683 124.688 83.6684H213.113C213.69 83.6684 214.265 83.6781 214.836 83.6974C230.745 84.1608 245.115 93.3133 252.252 107.528C259.867 122.041 258.896 139.56 249.722 153.143C218.66 199.769 209.15 229.004 218.887 247.937C228.305 266.25 257.174 275.613 309.739 277.402C323.865 277.883 330.348 288.874 330.394 298.883C330.438 308.634 324.205 319.399 310.415 319.994C309.967 320.013 309.516 320.022 309.062 320.022Z" fill="#3F3D56"/>
<path d="M191.047 446.166H244.199C248.113 446.166 251.286 442.995 251.286 439.084C251.286 435.173 248.113 432.002 244.199 432.002H224.71V312.498H210.536V432.002H191.047C187.133 432.002 183.96 435.173 183.96 439.084C183.96 442.995 187.133 446.166 191.047 446.166Z" fill="#3F3D56"/>
<path d="M239.155 397.988L248.311 402.957L272.55 369.469L259.035 362.133L239.155 397.988Z" fill="#A0616A"/>
<path d="M243.562 386.054L260.184 391.255L257.538 398.214L268.937 414.745C270.395 416.86 269.862 419.755 267.746 421.213C266.487 422.08 264.882 422.273 263.452 421.731L244.102 414.384L243.383 406.235L239.464 412.623L232.168 409.854L243.562 386.054V386.054Z" fill="#2F2E41"/>
<path d="M262.289 60.2618C263.109 65.8806 259.216 71.0999 253.593 71.9195C252.993 72.0068 252.387 72.0411 251.782 72.0219L216.479 147.084L205.407 131.655L241.748 60.6774C242.307 54.9957 247.369 50.8421 253.054 51.4001C257.812 51.8669 261.63 55.5305 262.289 60.2618V60.2618Z" fill="#A0616A"/>
<path d="M145.134 162.261C145.134 162.261 144.188 175.375 159.029 177.947C173.87 180.518 213.544 155.449 220.06 151.599C226.576 147.75 238.718 99.3176 238.718 99.3176L228.158 81.47C215.12 97.95 204.882 113.147 204.261 123.934L145.134 162.261H145.134Z" fill="#6B757B"/>
<path d="M162.268 207.431L165.473 221.193C165.473 221.193 165.504 233.882 167.753 236.222C169.986 238.551 219.094 233.875 219.094 233.875C219.094 233.875 213.887 213.427 213.956 197.954L162.268 207.431Z" fill="#A0616A"/>
<path d="M266.008 383.46L248.291 373.722C247.954 350.685 261.821 319.508 278.268 286.853C241.484 293.175 206.783 295.2 176.767 287.553C166.514 284.847 160.334 274.416 162.892 264.132C163.009 263.647 163.144 263.167 163.297 262.692C166.89 251.739 158.835 244.874 166.243 232.828C185.729 226.178 204.24 224.3 221.166 230.172L231.772 253.605L284.341 246.807C294.971 245.538 304.619 253.119 305.89 263.741C305.895 263.79 305.901 263.838 305.906 263.887C305.977 264.457 306.023 265.029 306.045 265.604C295.415 315.4 283.496 360.206 266.008 383.46Z" fill="#2F2E41"/>
<path d="M155.132 120.305L175.383 119.11C177.134 119.007 178.757 120.025 179.426 121.645L185.149 135.509L208.935 155.154C208.935 155.154 218.352 167.129 218.374 182.595C218.396 198.06 221.715 233.858 221.715 233.858C221.715 233.858 207.971 214.526 199.488 219.667C198.045 220.542 197.537 222.331 196.025 223.235C195.271 223.686 193.529 223.248 192.767 223.699C181.078 230.634 168.887 237.408 167.748 236.22C165.511 233.888 162.798 221.97 162.798 221.97L144.26 153.908C142.225 146.657 143.541 138.877 147.848 132.697C149.143 130.875 150.499 129.519 151.76 129.295C154.592 128.693 153.086 122.352 155.132 120.305Z" fill="#6B757B"/>
<path d="M327.404 426.818L335.952 420.879L316.586 384.369L303.97 393.134L327.404 426.818Z" fill="#A0616A"/>
<path d="M328.696 402.32L315.298 414.287C293.996 390.567 277.891 357.3 264.243 319.522C228.485 309.057 201.518 292.179 177.977 272.139C169.991 265.386 164.004 256.711 170.815 248.485C171.133 248.1 171.466 247.728 171.812 247.369C179.855 239.11 200.249 240.684 212.194 233.118L238.877 261.618L237.199 269.259L287.318 286.224C297.408 289.758 302.72 300.796 299.184 310.878C299.167 310.927 299.149 310.976 299.132 311.026C298.944 311.569 298.733 312.103 298.5 312.629L328.696 402.32V402.32Z" fill="#2F2E41"/>
<path d="M322.42 424.41L336.104 413.641L340.356 419.754L360.445 419.693C363.015 419.684 365.105 421.76 365.113 424.328C365.118 425.856 364.371 427.288 363.116 428.161L346.119 439.967L338.983 435.956L342.045 442.797L335.637 447.249L322.42 424.41Z" fill="#2F2E41"/>
<path d="M185.037 291.833C179.806 289.615 177.365 283.579 179.586 278.352C179.822 277.795 180.108 277.259 180.439 276.752L134.592 207.615L153.537 206.176L195.352 274.078C199.92 277.506 200.842 283.986 197.412 288.551C194.541 292.371 189.425 293.728 185.037 291.833V291.833Z" fill="#A0616A"/>
<path d="M158.676 138.812C158.676 138.812 147.954 131.192 138.046 142.528C128.137 153.864 128.964 200.764 128.871 208.327C128.842 210.695 132.264 215.806 136.979 221.709C139.096 224.359 141.474 227.168 143.916 229.962C145.33 231.578 144.112 234.942 145.531 236.513C146.943 238.076 150.992 237.845 152.334 239.295C158.707 246.178 163.885 251.418 163.885 251.418L184.632 251.672C184.866 236.261 174.304 222.504 160.735 209.208L158.676 138.812Z" fill="#6B757B"/>
<path d="M137.764 71.7097C135.799 73.1264 133.733 74.5859 131.336 74.937C128.939 75.288 126.133 74.1302 125.47 71.802C124.659 68.9554 127.231 66.3635 129.543 64.5135L136.875 58.6471C138.217 57.4573 139.733 56.4781 141.37 55.743C143.035 55.0108 144.943 55.0745 146.556 55.9162C148.158 56.9974 149.084 58.8314 149.003 60.7615C148.899 62.6641 148.271 64.5008 147.188 66.0691C144.438 70.3524 140.057 73.3282 135.059 74.3076" fill="#2F2E41"/>
<path d="M193.368 224.12H140.216C136.302 224.12 133.129 227.291 133.129 231.202C133.129 235.113 136.302 238.284 140.216 238.284H159.705V293.167H173.879V238.284H193.368C197.281 238.284 200.454 235.113 200.454 231.202C200.454 227.291 197.281 224.12 193.368 224.12Z" fill="#3F3D56"/>
<path d="M141.02 56.8519C141.234 51.5422 135.572 47.3379 130.266 47.6703C124.96 48.0026 120.399 51.732 117.39 56.1133C114.382 60.4908 112.575 65.5612 110.205 70.3142C107.836 75.0672 104.68 79.7209 99.9708 82.1839C95.2627 84.6432 88.7091 84.2044 85.4549 80.0054C83.4027 83.1153 82.9563 87.0162 84.2531 90.5088C85.5853 93.9562 88.0698 96.8369 91.2852 98.6625C92.5651 99.4209 93.9322 100.022 95.3566 100.451C95.944 98.8673 96.7704 97.3821 97.8071 96.0476C97.3389 97.6275 97.1601 99.2789 97.2795 100.922C99.475 101.343 101.734 101.307 103.915 100.818C108.258 99.847 111.889 96.8879 113.714 92.832C115.704 88.1246 114.69 82.7575 115.116 77.6654C115.538 72.5723 118.609 66.7583 123.723 66.6752C127.618 66.6112 127.102 66.9321 129.57 69.9432" fill="#2F2E41"/>
<path d="M176.384 84.7526C176.384 97.4639 166.072 107.768 153.352 107.768C140.632 107.768 128.548 93.0378 128.548 80.3265C128.548 67.6153 140.632 61.7369 153.352 61.7369C166.072 61.7369 176.384 72.0414 176.384 84.7526Z" fill="#2F2E41"/>
<path d="M164.702 112.334C176.591 109.903 184.258 98.3011 181.825 86.4202C179.392 74.5394 167.781 66.8788 155.892 69.3098C144.003 71.7409 136.336 83.343 138.769 95.2239C141.202 107.105 152.813 114.765 164.702 112.334Z" fill="#A0616A"/>
<path d="M187.901 87.4083C181.396 89.1832 174.828 91.0437 172.292 87.4083C171.799 84.9979 170.865 82.6991 169.537 80.6275C169.287 82.9475 168.742 85.2261 167.916 87.4083C159.698 89.1933 152.017 89.62 145.379 87.4083C144.467 89.0577 143.937 90.8911 143.829 92.7727C143.501 92.5668 143.157 92.3862 142.802 92.2328C142.375 91.9917 141.865 91.9465 141.402 92.1088C141.082 92.3019 140.869 92.6319 140.826 93.0029C140.782 93.3721 140.8 93.7461 140.879 94.1094C140.972 95.3756 141.351 96.6043 141.987 97.7034C142.495 98.4689 143.302 98.986 144.21 99.1286C145.131 104.307 152.466 111.309 152.466 111.309C130.32 112.194 130.32 97.1812 130.32 82.9822L132.977 77.6709H141.836V66.163H166.64C178.381 66.1661 187.898 75.6762 187.901 87.4083V87.4083Z" fill="#2F2E41"/>
<path d="M389.731 448.728L1.06028 449C0.477749 449.003 0.00305315 448.534 1.46571e-05 447.951C-0.00302384 447.369 0.466747 446.895 1.04928 446.892H1.06028L389.731 446.62C390.313 446.622 390.784 447.095 390.782 447.677C390.78 448.257 390.311 448.726 389.731 448.728Z" fill="#CACACA"/>
<path d="M649.287 448.728L448.419 449C447.836 449.003 447.362 448.534 447.359 447.951C447.356 447.369 447.825 446.895 448.408 446.892H448.419L649.287 446.62C649.87 446.618 650.344 447.088 650.345 447.671C650.347 448.253 649.877 448.726 649.294 448.728H649.287Z" fill="#CACACA"/>
<path d="M398.614 131.013H322.471C315.858 131.005 310.499 125.65 310.491 119.041V68.6253C310.499 62.0168 315.858 56.6614 322.471 56.6541H398.614C405.227 56.6614 410.586 62.0168 410.593 68.6253V119.041C410.586 125.65 405.227 131.005 398.614 131.013ZM322.471 58.4245C316.836 58.4309 312.27 62.9942 312.263 68.6253V119.041C312.27 124.672 316.836 129.236 322.471 129.242H398.614C404.249 129.236 408.815 124.672 408.822 119.041V68.6253C408.815 62.9942 404.249 58.4309 398.614 58.4245L322.471 58.4245Z" fill="#E6E6E6"/>
<path d="M345.032 72.588H324.665V74.3585H345.032V72.588Z" fill="#E6E6E6"/>
<path d="M369.844 79.6698H324.665V81.4402H369.844V79.6698Z" fill="#E6E6E6"/>
<path d="M369.844 85.8663H324.665V87.6368H369.844V85.8663Z" fill="#E6E6E6"/>
<path d="M382.246 92.0629H324.665V93.8333H382.246V92.0629Z" fill="#E6E6E6"/>
<path d="M354.784 98.2594H324.665V100.03H354.784V98.2594Z" fill="#E6E6E6"/>
<path d="M379.588 104.456H324.665V106.226H379.588V104.456Z" fill="#E6E6E6"/>
<path d="M334.409 110.652H324.665V112.423H334.409V110.652Z" fill="#E6E6E6"/>
<path d="M324.002 34.4867C323.916 34.4867 323.83 34.4534 323.765 34.3871L321.875 32.4563C321.749 32.3277 321.749 32.1221 321.875 31.9934L323.765 30.0628C323.893 29.9322 324.103 29.9301 324.233 30.0576C324.364 30.1855 324.367 30.3951 324.239 30.5257L322.575 32.2249L324.239 33.9242C324.367 34.0548 324.364 34.2645 324.233 34.3923C324.169 34.4553 324.085 34.4867 324.002 34.4867V34.4867Z" fill="#CCCCCC"/>
<path d="M327.178 34.4867C327.094 34.4867 327.011 34.4553 326.946 34.3923C326.815 34.2645 326.813 34.055 326.941 33.9242L328.605 32.2249L326.941 30.5257C326.813 30.3951 326.815 30.1854 326.946 30.0576C327.077 29.9296 327.287 29.932 327.415 30.0628L329.305 31.9934C329.431 32.1221 329.431 32.3277 329.305 32.4563L327.415 34.3871C327.35 34.4534 327.264 34.4867 327.178 34.4867V34.4867Z" fill="#CCCCCC"/>
<path d="M426.06 29.6946H422.546C422.145 29.6946 421.82 30.019 421.82 30.4195V33.9349C421.82 34.3354 422.145 34.6598 422.546 34.6598H426.06C426.461 34.6598 426.789 34.3354 426.789 33.9349V30.4195C426.789 30.019 426.461 29.6946 426.06 29.6946Z" fill="#CCCCCC"/>
<path d="M417.448 29.6946H413.933C413.532 29.6946 413.208 30.019 413.208 30.4195V33.9349C413.208 34.3354 413.532 34.6598 413.933 34.6598H417.448C417.849 34.6598 418.177 34.3354 418.177 33.9349V30.4195C418.177 30.019 417.849 29.6946 417.448 29.6946Z" fill="#CCCCCC"/>
<path d="M434.176 29.8601H430.661C430.261 29.8601 429.936 30.1845 429.936 30.585V34.1004C429.936 34.5009 430.261 34.8253 430.661 34.8253H434.176C434.577 34.8253 434.905 34.5009 434.905 34.1004V30.585C434.905 30.1845 434.577 29.8601 434.176 29.8601Z" fill="#CCCCCC"/>
<path d="M381.201 31.1974H353.108C352.618 31.1974 352.223 31.5946 352.223 32.0812C352.223 32.5678 352.618 32.965 353.108 32.965H381.201C381.688 32.965 382.086 32.5678 382.086 32.0812C382.086 31.5946 381.688 31.1974 381.201 31.1974Z" fill="#CCCCCC"/>
</g>
<defs>
<clipPath id="clip0_20_1091">
<rect width="711" height="449" fill="white"/>
</clipPath>
</defs>
</svg>
